<svg version="1.1" id="ignition" xmlns="http://www.w3.org/2000/svg" xmlns:xlink="http://www.w3.org/1999/xlink" x="0px" y="0px"
	 viewBox="0 0 3118.7 1482.4" style="enable-background:new 0 0 3118.7 1482.4;" xml:space="preserve">
	<rect x="-21.2" y="-23.2" style="fill:#29084B;" width="3181.5" height="1513"/>
	<g>
		<path style="fill:#FFFFFF;" d="M1236.8,865.2H1180V551.7h56.8V865.2z"/>
		<path style="fill:#FFFFFF;" d="M1294.5,898.9l49.9-12.1c6.7,12.9,21.4,28.6,54.8,28.6c31.5,0,54.5-14.2,54.5-47.9v-44.5h-2.8
			c-8.6,17.3-27.4,38.9-67.7,38.9c-54.2,0-96.9-38.3-96.9-115c0-77.3,42.7-119.9,97.1-119.9c41.5,0,59.1,25,67.5,41.9h3.1v-38.9
			h54.7v239c0,59.2-46.8,88.3-110.4,88.3C1338.5,957.4,1304.7,930.9,1294.5,898.9z M1454.1,746.6c0-44.5-19.6-74.1-55.3-74.1
			c-36.9,0-55.9,31.4-55.9,74.1c0,43.3,19.3,71.8,55.9,71.8C1434.2,818.4,1454.1,791.4,1454.1,746.6z"/>
		<path style="fill:#FFFFFF;" d="M1621.1,865.2h-55.4V630.1h53v40h2.8c10.7-26.2,34.9-43,70.1-43c48.5,0,80.7,32.1,80.5,88.5v149.7
			h-55.4V724.1c0-31.4-17.1-50.2-45.8-50.2c-29.2,0-49.8,19.6-49.8,53.6V865.2z"/>
		<path style="fill:#FFFFFF;" d="M1824.2,566.7c0-16.7,14.4-30.2,32.1-30.2c17.6,0,32,13.5,32,30.2c0,16.5-14.4,30-32,30
			C1838.6,596.7,1824.2,583.2,1824.2,566.7z M1828.5,630.1h55.4v235.1h-55.4V630.1z"/>
		<path style="fill:#FFFFFF;" d="M2058.3,672.9h-46.4v121.6c0,22.4,11.2,27.3,25.1,27.3c6.9,0,13.2-1.4,16.2-2.1l9.3,43.3
			c-6,2-16.8,5.1-32.6,5.5c-41.6,1.2-73.8-20.5-73.5-64.8V672.9h-33.4v-42.9h33.4v-56.3h55.4v56.3h46.4V672.9z"/>
		<path style="fill:#FFFFFF;" d="M2100.4,566.7c0-16.7,14.4-30.2,32.1-30.2c17.6,0,32,13.5,32,30.2c0,16.5-14.4,30-32,30
			C2114.8,596.7,2100.4,583.2,2100.4,566.7z M2104.7,630.1h55.4v235.1h-55.4V630.1z"/>
		<path style="fill:#FFFFFF;" d="M2207,748.5c0-72.9,43.8-121.6,112.7-121.6c68.9,0,112.7,48.7,112.7,121.6
			c0,72.7-43.8,121.2-112.7,121.2C2250.8,869.8,2207,821.3,2207,748.5z M2376.1,748.4c0-43-18.7-77.5-56.2-77.5
			c-38.1,0-56.8,34.4-56.8,77.5c0,43,18.7,77,56.8,77C2357.5,825.4,2376.1,791.4,2376.1,748.4z"/>
		<path style="fill:#FFFFFF;" d="M2534.6,865.2h-55.4V630.1h53v40h2.8c10.7-26.2,34.9-43,70.1-43c48.5,0,80.7,32.1,80.5,88.5v149.7
			h-55.4V724.1c0-31.4-17.1-50.2-45.8-50.2c-29.2,0-49.8,19.6-49.8,53.6V865.2z"/>
	</g>
	<g>
		<polygon style="fill:#FA4E79;" points="857.5,495 857.5,742 643.6,865.5 643.4,617.2 			"/>
		<polygon style="fill:#FFF082;" points="429.6,1236 429.6,989 643.5,865.5 643.2,1112 			"/>
		<polygon style="fill:#E6003A;" points="643.6,371.8 643.6,865.5 429.7,742 429.4,247.9 			"/>
		<polygon style="fill:#FFE100;" points="643.2,1112 643.5,865.5 857.4,988.9 857.4,1236 			"/>
	</g>
</svg>
