<svg version="1.1" id="Layer_3" xmlns="http://www.w3.org/2000/svg" xmlns:xlink="http://www.w3.org/1999/xlink" x="0px" y="0px"
	 viewBox="0 0 3036.3 1124.4" style="enable-background:new 0 0 3036.3 1124.4;" xml:space="preserve">
	<g>
		<polygon style="fill:#E6003A;" points="525.7,804.5 352.5,705 352.5,506.3 525.7,606.1 		"/>
		<polygon style="fill:#B11BE3;" points="526.3,407.5 526.3,606.2 784,754.8 784,556.4 		"/>
		<polygon style="fill:#7900F5;" points="701.5,309.9 701.5,508.6 1047.4,707.6 1047.4,509.2 		"/>
	</g>
	<g>
		<path style="fill:#4D4963;" d="M1282.6,407.5H1472v44.9h-135.8v80.3H1459v44.9h-122.9v125.6h-53.6V407.5z"/>
		<path style="fill:#4D4963;" d="M1506.1,640.9c0-49.9,41.1-62.8,84.2-67.4c39.1-4.2,54.9-4.9,54.9-19.9v-0.9
			c0-21.8-13.3-34.2-37.5-34.2c-25.6,0-40.3,13-45.5,28.2l-48.8-6.9c11.5-40.4,47.4-61.2,94-61.2c42.3,0,90.1,17.6,90.1,76.2v148.4
			h-50.2v-30.5h-1.7c-9.5,18.6-30.3,34.9-65.1,34.9C1538,707.6,1506.1,684.5,1506.1,640.9z M1645.3,623.6v-26.1
			c-6.8,5.5-34.2,9-47.9,10.8c-23.4,3.3-40.9,11.7-40.9,31.8c0,19.2,15.6,29.2,37.4,29.2C1625.3,669.2,1645.3,648.3,1645.3,623.6z"
			/>
		<path style="fill:#4D4963;" d="M1740.6,593.2c0-67.7,41-114.6,106-114.6c54.1,0,91.7,31.6,95.3,79.7h-50
			c-4-21.4-19.5-37.5-44.6-37.5c-32.2,0-53.7,26.9-53.7,71.6c0,45.3,21.1,72.6,53.7,72.6c23,0,40.1-13.7,44.6-37.5h50
			c-3.8,47.1-39.3,80.1-95,80.1C1780.6,707.5,1740.6,660.3,1740.6,593.2z"/>
		<path style="fill:#4D4963;" d="M1974.5,640.9c0-49.9,41.1-62.8,84.2-67.4c39.1-4.2,54.9-4.9,54.9-19.9v-0.9
			c0-21.8-13.3-34.2-37.5-34.2c-25.6,0-40.3,13-45.5,28.2l-48.8-6.9c11.5-40.4,47.4-61.2,94-61.2c42.3,0,90.1,17.6,90.1,76.2v148.4
			h-50.2v-30.5h-1.7c-9.5,18.6-30.3,34.9-65.1,34.9C2006.4,707.6,1974.5,684.5,1974.5,640.9z M2113.7,623.6v-26.1
			c-6.8,5.5-34.2,9-47.9,10.8c-23.4,3.3-40.9,11.7-40.9,31.8c0,19.2,15.6,29.2,37.4,29.2C2093.8,669.2,2113.7,648.3,2113.7,623.6z"
			/>
		<path style="fill:#4D4963;" d="M2209.4,592.6c0-73.9,40.3-114,91.5-114c39.1,0,55.4,23.5,63.4,39.6h2.2V407.5h52.4v295.7h-51.4
			v-34.9h-3.2c-8.2,16.2-25.4,38.8-63.5,38.8C2248.6,707.1,2209.4,665.6,2209.4,592.6z M2367.5,592.3c0-43-18.5-70.9-52.1-70.9
			c-34.8,0-52.7,29.6-52.7,70.9c0,41.6,18.2,71.9,52.7,71.9C2348.7,664.2,2367.5,635.3,2367.5,592.3z"/>
		<path style="fill:#4D4963;" d="M2465.3,593.6c0-68.4,41.4-115.1,105-115.1c54.6,0,101.3,34.2,101.3,112v16h-154.5
			c0.4,38,22.8,60.2,56.6,60.2c22.5,0,39.8-9.8,46.9-28.6l48.8,5.5c-9.2,38.5-44.8,63.8-96.4,63.8
			C2506.2,707.5,2465.3,663.2,2465.3,593.6z M2621.5,571.4c-0.3-30.2-20.5-52.1-50.5-52.1c-31.2,0-52.1,23.8-53.7,52.1H2621.5z"/>
	</g>
</svg>
