<svg version="1.1" id="flare" xmlns="http://www.w3.org/2000/svg" xmlns:xlink="http://www.w3.org/1999/xlink" x="0px" y="0px"
	 viewBox="0 0 1739.1 988.1" style="enable-background:new 0 0 1739.1 988.1;" xml:space="preserve">
	<g>
		<polygon style="fill:#51DB9E;" points="230,493.8 16.2,370.3 16.2,123.4 231.3,247.4 "/>
		<polygon style="fill:#7900F5;" points="230,988.1 16.2,864.6 16.2,617.8 229.5,741.2 "/>
		<polygon style="fill:#94F2C8;" points="443.6,370.2 16.2,123.4 230,0 657.9,246.7 "/>
		<polygon style="fill:#A475F4;" points="229.5,741.2 16.2,617.8 230,494.3 443.8,617.8 "/>
	</g>
	<g>
		<path style="fill:#4B476D;" d="M761.4,304.5h200.9v47.6H818.2v85.1h130.3v47.6H818.2V618h-56.8V304.5z"/>
		<path style="fill:#4B476D;" d="M1066.8,618h-55.4V304.5h55.4V618z"/>
		<path style="fill:#4B476D;" d="M1112.8,552.1c0-53,43.6-66.6,89.3-71.5c41.5-4.4,58.2-5.2,58.2-21.1v-0.9
			c0-23.1-14.1-36.3-39.8-36.3c-27.1,0-42.7,13.8-48.2,29.9l-51.7-7.3c12.2-42.9,50.2-64.9,99.7-64.9c44.9,0,95.5,18.7,95.5,80.8
			V618h-53.3v-32.3h-1.8c-10.1,19.7-32.1,37-69,37C1146.6,622.8,1112.8,598.3,1112.8,552.1z M1260.3,533.7V506
			c-7.2,5.8-36.3,9.5-50.8,11.5c-24.8,3.5-43.3,12.4-43.3,33.7c0,20.4,16.5,30.9,39.7,30.9C1239.2,582.1,1260.3,559.9,1260.3,533.7z
			"/>
		<path style="fill:#4B476D;" d="M1371.5,382.9h53.7v39.2h2.4c8.6-27.3,31.1-42.6,58-42.6c6.1,0,14.8,0.6,19.9,1.5v51
			c-4.7-1.5-16.4-3.2-25.7-3.2c-30.5,0-53,21.1-53,51V618h-55.4V382.9z"/>
		<path style="fill:#4B476D;" d="M1522.6,501.8c0-72.6,43.9-122,111.3-122c57.9,0,107.5,36.3,107.5,118.8v17h-163.8
			c0.5,40.3,24.2,63.8,60,63.8c23.9,0,42.3-10.4,49.8-30.3l51.7,5.8c-9.8,40.9-47.5,67.7-102.3,67.7
			C1565.9,622.6,1522.6,575.6,1522.6,501.8z M1688.2,478.3c-0.3-32-21.7-55.3-53.6-55.3c-33.1,0-55.3,25.3-56.9,55.3H1688.2z"/>
	</g>
</svg>
